<?xml version="1.0" standalone="no"?>
<!DOCTYPE svg PUBLIC "-//W3C//DTD SVG 20010904//EN"
 "http://www.w3.org/TR/2001/REC-SVG-20010904/DTD/svg10.dtd">
<svg version="1.0" xmlns="http://www.w3.org/2000/svg"
 width="1920.000000pt" height="1920.000000pt" viewBox="0 0 1920.000000 1920.000000"
 preserveAspectRatio="xMidYMid meet">

<g transform="translate(0.000000,1920.000000) scale(0.100000,-0.100000)"
fill="#000000" stroke="none">
<path d="M9340 14514 c-25 -2 -106 -8 -180 -14 -74 -6 -180 -18 -235 -26 -55
-8 -129 -17 -165 -20 -80 -7 -173 -25 -357 -69 -78 -19 -152 -36 -165 -39 -63
-11 -483 -141 -503 -156 -11 -7 -124 -50 -140 -52 -5 -1 -53 -21 -105 -46 -52
-24 -108 -49 -125 -55 -117 -45 -635 -328 -690 -377 -11 -9 -40 -29 -65 -44
-25 -15 -88 -57 -142 -94 -89 -62 -136 -99 -382 -301 -126 -103 -504 -484
-606 -610 -47 -58 -108 -132 -135 -165 -95 -114 -319 -441 -385 -561 -18 -33
-41 -71 -50 -85 -10 -14 -43 -72 -73 -130 -30 -58 -62 -118 -71 -135 -33 -63
-128 -268 -131 -284 -2 -9 -19 -52 -38 -96 -199 -450 -368 -1193 -385 -1690
-20 -560 -1 -901 69 -1280 17 -88 32 -176 35 -195 18 -147 184 -682 283 -912
22 -53 41 -100 41 -103 0 -18 235 -494 250 -505 3 -3 30 -48 59 -100 29 -52
64 -109 77 -127 13 -17 24 -36 24 -42 0 -6 5 -11 10 -11 14 0 15 -3 -41 116
-28 60 -52 116 -54 124 -2 8 -22 61 -44 117 -46 113 -166 481 -175 534 -3 19
-23 111 -45 204 -41 176 -50 230 -76 450 -36 313 -47 717 -25 965 29 334 58
526 110 745 16 66 31 131 33 145 11 55 39 151 76 258 22 61 38 112 36 112 -5
0 21 76 35 105 5 11 30 74 56 140 25 66 65 159 89 208 25 48 42 87 39 87 -3 0
13 35 36 78 23 42 61 113 84 158 143 274 441 701 635 909 79 85 381 386 471
471 79 74 182 156 315 252 55 40 123 89 150 109 28 20 100 67 160 104 61 37
137 85 170 105 67 42 496 257 535 269 24 7 180 71 247 101 17 8 37 14 45 14 7
0 78 22 157 49 78 28 159 53 179 56 20 3 69 14 107 25 143 40 272 69 350 79
44 6 141 19 215 30 471 70 975 65 1440 -14 47 -8 110 -17 140 -20 52 -5 183
-36 325 -75 39 -10 86 -22 105 -25 19 -3 101 -28 181 -56 80 -27 156 -52 170
-54 13 -3 33 -9 44 -14 39 -19 210 -89 235 -96 39 -12 468 -227 535 -269 33
-20 119 -73 190 -118 72 -44 132 -83 135 -87 3 -4 21 -18 40 -31 145 -98 332
-244 430 -335 91 -84 393 -386 471 -470 197 -213 486 -626 632 -905 24 -47 63
-120 86 -162 24 -43 40 -78 37 -78 -3 0 14 -39 39 -87 24 -49 64 -142 89 -208
26 -66 51 -129 56 -140 14 -29 40 -105 35 -105 -2 0 14 -51 36 -112 37 -107
65 -203 76 -258 2 -14 17 -79 33 -145 52 -219 81 -411 110 -745 22 -248 11
-652 -25 -965 -26 -219 -35 -274 -77 -455 -22 -96 -42 -186 -44 -200 -11 -59
-141 -462 -174 -535 -32 -71 -49 -115 -45 -115 2 0 -21 -52 -51 -115 -30 -63
-54 -117 -54 -120 0 -12 16 -3 25 14 13 25 90 154 126 211 30 47 54 93 156
295 69 136 123 251 123 261 0 4 19 50 41 103 99 229 264 762 283 913 3 18 16
95 31 171 70 369 89 683 76 1257 -3 154 -28 385 -60 565 -11 61 -29 161 -40
222 -20 111 -48 225 -91 373 -12 41 -24 84 -26 95 -3 20 -15 54 -96 290 -19
55 -52 138 -72 185 -21 47 -39 92 -41 101 -4 17 -100 224 -137 294 -11 22 -43
83 -71 135 -27 52 -57 106 -67 120 -9 14 -32 52 -50 85 -37 68 -230 358 -299
451 -270 361 -611 713 -961 994 -58 47 -115 94 -128 105 -32 27 -208 149 -262
181 -25 15 -54 35 -65 44 -55 49 -573 332 -690 377 -16 6 -73 31 -125 55 -52
25 -99 45 -105 46 -17 3 -129 45 -140 53 -18 13 -439 144 -498 154 -15 3 -91
21 -170 40 -180 43 -284 64 -328 66 -19 1 -74 7 -124 15 -209 31 -413 46 -680
49 -154 1 -300 1 -325 -1z"/>
<path d="M10320 12824 c-6 -16 -13 -35 -16 -43 -2 -8 -7 -30 -10 -50 -11 -65
-28 -78 -131 -97 -42 -8 -76 -25 -67 -33 5 -4 48 -20 96 -36 91 -29 90 -28
104 -99 5 -26 35 -116 38 -116 2 0 16 39 31 88 16 48 33 92 39 98 6 6 51 23
100 39 l90 29 -32 13 c-18 7 -48 16 -68 19 -43 7 -105 32 -102 42 2 11 -43
156 -53 166 -5 5 -13 -3 -19 -20z"/>
<path d="M9308 12395 c-3 -6 -16 -44 -28 -85 -24 -75 -36 -100 -48 -98 -4 0
-11 -1 -17 -2 -5 -1 -14 -3 -20 -4 -27 -4 -116 -39 -111 -44 10 -9 137 -52
149 -49 9 2 50 -95 71 -168 7 -25 16 -15 22 24 3 17 13 54 23 83 l17 52 83 25
c45 14 83 30 84 36 2 8 -57 30 -111 40 -52 9 -57 15 -76 82 -29 110 -32 117
-38 108z"/>
<path d="M7970 12258 c-13 -40 -23 -82 -24 -92 -1 -19 -69 -49 -135 -59 -73
-12 -66 -23 35 -58 76 -27 98 -38 100 -54 4 -29 48 -165 54 -165 5 0 55 157
55 174 0 6 44 26 98 45 54 18 96 35 94 37 -2 3 -37 14 -78 25 -81 22 -116 40
-116 61 -1 25 -45 158 -53 158 -4 0 -18 -33 -30 -72z"/>
<path d="M11582 11939 c-6 -26 -13 -53 -15 -60 -2 -8 -2 -11 0 -7 2 4 11 4 18
2 12 -5 12 -10 -2 -30 -18 -28 -35 -32 -26 -6 5 14 3 14 -10 -3 -8 -10 -50
-32 -93 -47 -44 -15 -63 -25 -44 -22 24 3 31 2 21 -4 -16 -11 5 -20 61 -28 44
-5 52 -17 82 -109 14 -44 25 -75 26 -68 0 6 3 19 7 29 4 11 3 15 -4 11 -19
-12 -8 25 12 39 11 8 18 27 19 50 1 38 5 40 73 46 7 1 15 8 18 15 3 9 12 12
24 8 10 -3 28 -2 41 3 19 7 9 13 -63 35 -78 25 -106 45 -92 67 3 4 -3 11 -12
14 -15 6 -15 8 -3 16 11 7 12 10 2 10 -7 0 -11 4 -7 9 3 6 -1 25 -8 43 l-13
33 -12 -46z m21 -9 c3 -11 1 -18 -4 -14 -5 3 -9 12 -9 20 0 20 7 17 13 -6z m2
-40 c-3 -5 -1 -12 5 -15 6 -4 8 -16 4 -27 -3 -12 -2 -18 3 -15 6 4 10 -6 9
-21 -1 -19 5 -28 19 -30 17 -4 18 -2 6 12 -9 10 -10 16 -2 16 6 0 11 -4 11 -9
0 -5 11 -8 25 -8 14 0 28 -3 31 -5 8 -8 -7 -38 -16 -33 -5 3 -11 1 -15 -5 -4
-6 -11 -8 -16 -5 -5 4 -9 2 -9 -3 0 -6 -9 -8 -20 -5 -18 5 -25 -4 -21 -29 0
-4 -7 -4 -16 -1 -11 4 -13 8 -5 11 7 2 10 8 6 13 -3 5 -1 9 5 9 6 0 8 6 5 14
-5 12 -8 12 -23 -2 -19 -18 -20 -29 -7 -51 6 -10 5 -12 -2 -7 -7 4 -12 3 -12
-2 0 -6 6 -12 14 -15 15 -6 16 -31 1 -44 -4 -4 -5 -2 -1 5 4 7 2 12 -6 12 -11
0 -10 2 0 9 11 7 11 9 -1 14 -15 5 -31 47 -18 47 4 0 7 16 8 35 0 28 -2 33
-12 25 -7 -6 -11 -21 -8 -33 3 -13 1 -18 -4 -12 -4 6 -24 11 -43 12 -55 1 -57
2 -57 18 0 11 4 12 14 4 9 -8 13 -8 13 -1 0 6 10 16 23 22 21 11 21 10 3 -4
-16 -13 -17 -16 -4 -16 9 0 23 12 33 26 13 20 19 23 25 14 6 -10 15 -6 34 13
30 30 33 45 11 53 -8 4 -15 12 -15 20 0 8 6 11 15 8 8 -4 13 -10 10 -14z m165
-120 c13 -9 13 -10 0 -10 -8 0 -22 5 -30 10 -13 9 -13 10 0 10 8 0 22 -5 30
-10z m-150 -95 c0 -8 -2 -15 -4 -15 -2 0 -6 7 -10 15 -3 8 -1 15 4 15 6 0 10
-7 10 -15z"/>
<path d="M11589 11814 c-16 -19 -19 -53 -6 -61 6 -3 7 -1 3 5 -4 7 -2 12 4 12
7 0 9 8 5 21 -5 14 -3 19 3 15 6 -3 13 -2 16 3 11 17 -11 21 -25 5z"/>
<path d="M11518 11776 c-13 -18 -14 -23 -2 -23 8 0 14 6 14 14 0 7 5 13 10 13
6 0 10 5 10 10 0 17 -14 11 -32 -14z"/>
<path d="M11610 11781 c0 -6 5 -11 11 -11 5 0 8 -4 5 -8 -2 -4 4 -8 15 -8 10
0 19 5 19 11 0 6 3 5 8 -2 5 -8 12 -8 25 2 15 11 16 13 2 19 -8 3 -15 2 -15
-2 0 -12 -43 -12 -57 0 -9 7 -13 7 -13 -1z"/>
<path d="M10327 11888 c-9 -24 -18 -52 -20 -63 -1 -11 -6 -26 -10 -32 -5 -7
-5 -13 0 -13 4 0 -26 -12 -67 -26 -116 -38 -107 -34 -89 -45 9 -5 27 -11 40
-13 13 -3 26 -5 29 -6 3 -2 8 -2 12 -1 16 2 78 -30 78 -41 0 -27 42 -148 50
-143 5 3 17 37 27 76 19 76 34 94 88 103 58 11 90 23 87 32 -1 5 -37 20 -79
35 -64 21 -77 29 -80 50 -4 28 -33 110 -43 122 -4 4 -14 -11 -23 -35z"/>
<path d="M6651 11674 c0 -11 3 -14 6 -6 3 7 2 16 -1 19 -3 4 -6 -2 -5 -13z"/>
<path d="M6633 11621 c-4 -14 -7 -29 -8 -33 0 -3 -3 -10 -7 -14 -4 -4 -2 -14
5 -22 10 -13 9 -14 -2 -7 -11 6 -13 4 -8 -8 3 -9 2 -19 -3 -22 -6 -4 -10 -16
-10 -28 0 -17 2 -19 9 -7 6 8 7 19 3 25 -3 5 1 4 9 -2 16 -13 39 -1 39 21 0 6
-5 5 -12 -2 -7 -7 -16 -12 -22 -12 -5 0 0 9 12 21 22 19 22 46 0 33 -5 -4 -2
5 7 20 9 14 20 24 24 21 9 -5 7 -42 -2 -52 -4 -3 3 -18 15 -32 13 -14 16 -20
7 -13 -13 10 -19 9 -31 -6 -21 -24 -29 -50 -18 -57 6 -4 10 -1 10 5 0 6 5 8
10 5 6 -4 5 -12 -4 -21 -18 -18 -26 -18 -26 1 0 9 -6 12 -17 9 -17 -5 -17 -5
0 6 9 6 17 19 17 28 -1 16 -1 16 -11 0 -5 -9 -16 -15 -23 -12 -16 6 -126 -24
-126 -34 0 -4 -12 -8 -26 -9 -56 -3 -39 -19 51 -49 52 -17 92 -27 89 -23 -2 5
-29 16 -59 25 -51 16 -68 35 -46 49 5 3 13 -4 16 -16 5 -14 12 -18 23 -14 40
16 46 17 28 3 -19 -15 -19 -15 9 -15 27 0 48 -21 50 -53 1 -8 2 -25 3 -37 1
-13 9 -23 18 -23 8 0 12 -5 9 -10 -4 -6 -10 -8 -14 -5 -5 2 1 -25 13 -60 l21
-65 27 81 c15 45 25 85 23 89 -3 5 0 10 7 12 7 3 5 7 -6 11 -11 4 -15 3 -10
-4 4 -8 1 -8 -14 0 -27 14 -35 14 -26 -1 4 -7 3 -9 -1 -5 -5 4 -15 -3 -23 -15
-9 -16 -12 -17 -8 -4 4 10 1 25 -5 32 -9 11 -8 14 7 14 14 0 15 3 6 12 -15 15
-16 28 -2 28 6 0 10 -7 10 -15 0 -8 9 -19 21 -25 28 -15 37 -5 10 12 -12 7
-21 18 -21 25 0 21 17 15 23 -8 4 -14 11 -20 21 -16 10 4 13 1 9 -9 -6 -16 8
-19 23 -5 12 12 155 61 177 61 9 0 19 5 22 10 4 6 3 10 -2 9 -4 -1 -10 -1 -13
1 -3 1 -16 3 -29 6 -14 2 -44 11 -68 19 -50 17 -64 19 -43 5 8 -5 10 -10 5
-10 -6 0 -19 9 -28 21 -18 21 -52 23 -52 2 0 -6 -3 -15 -7 -19 -5 -4 -8 3 -8
15 0 14 -4 20 -11 15 -7 -4 -10 -1 -7 7 3 8 16 14 30 13 20 -1 24 3 21 17 -3
11 -11 19 -19 19 -7 0 -16 5 -20 12 -5 8 -2 9 9 5 21 -8 21 -2 2 55 -18 50
-42 59 -52 19z m37 5 c0 -2 -7 -6 -15 -10 -8 -3 -15 -1 -15 4 0 6 7 10 15 10
8 0 15 -2 15 -4z m74 -187 c-3 -5 -10 -6 -16 -3 -6 4 -8 -1 -6 -11 4 -23 28
-32 28 -12 0 13 58 36 63 25 1 -1 8 -14 15 -27 11 -19 11 -22 0 -15 -7 5 -16
9 -20 9 -3 0 -10 4 -15 9 -5 5 -3 6 5 2 6 -4 12 -2 12 4 0 7 -7 9 -16 6 -9 -3
-21 -6 -27 -6 -7 0 3 -8 21 -17 18 -8 30 -18 27 -21 -3 -3 -17 1 -31 8 -22 12
-27 12 -34 0 -8 -13 -12 -12 -24 5 -19 25 -20 52 -3 58 16 6 29 -2 21 -14z
m-183 -4 c0 -5 -5 -11 -13 -13 -9 -2 -8 0 2 8 12 9 8 10 -20 6 -26 -5 -30 -4
-15 3 24 12 46 10 46 -4z m303 -34 c-2 -3 -12 3 -22 13 -16 17 -16 18 5 5 12
-7 20 -15 17 -18z m-114 -35 c0 -2 -7 -7 -16 -10 -8 -3 -12 -2 -9 4 6 10 25
14 25 6z m-55 -66 c3 -5 2 -10 -4 -10 -5 0 -13 5 -16 10 -3 6 -2 10 4 10 5 0
13 -4 16 -10z m-38 -22 c-3 -8 -6 -5 -6 6 -1 11 2 17 5 13 3 -3 4 -12 1 -19z
m28 -15 c-4 -10 -9 -28 -11 -40 -2 -12 -8 -31 -12 -42 -6 -18 -8 -17 -18 13
-8 27 -8 33 3 29 7 -3 13 2 13 11 0 10 -6 13 -17 10 -15 -5 -15 -4 -3 4 8 6
18 8 22 6 5 -3 11 2 14 10 3 9 8 16 11 16 3 0 2 -8 -2 -17z"/>
<path d="M11605 11620 c-3 -5 -1 -10 4 -10 6 0 11 5 11 10 0 6 -2 10 -4 10 -3
0 -8 -4 -11 -10z"/>
<path d="M8586 11576 c-4 -18 -17 -31 -36 -38 -32 -11 -31 -28 1 -28 13 0 25
-11 32 -30 l13 -29 11 29 c7 20 18 30 32 30 31 0 35 19 5 26 -16 4 -31 18 -39
37 l-12 29 -7 -26z"/>
<path d="M10490 11334 c-155 -26 -348 -88 -449 -144 -41 -22 -76 -40 -79 -40
-18 0 -150 -112 -272 -231 -141 -137 -211 -194 -507 -408 -79 -57 -143 -105
-143 -107 0 -3 42 -2 93 2 158 11 191 -8 201 -117 2 -25 11 -59 20 -76 17 -34
114 -123 133 -123 25 0 81 -61 104 -112 19 -46 23 -74 27 -205 2 -84 2 -163
-2 -177 -4 -18 -22 -33 -60 -51 -65 -31 -116 -85 -116 -123 0 -37 21 -65 74
-96 24 -14 54 -42 66 -61 12 -20 28 -41 35 -49 7 -7 30 -46 50 -87 75 -148
187 -345 213 -372 45 -48 89 -64 181 -66 73 -2 90 1 139 25 31 15 76 47 100
71 55 55 84 67 129 52 43 -14 66 -55 53 -98 -17 -59 -114 -223 -188 -314 -74
-94 -231 -275 -288 -334 -36 -37 -64 -41 -109 -17 -16 9 -70 31 -120 51 -49
19 -146 57 -214 85 -69 27 -134 52 -144 54 -18 3 -141 53 -225 91 -18 8 -41
16 -51 18 -9 2 -68 24 -131 50 -63 26 -123 49 -134 51 -38 7 -41 20 -41 194 0
199 4 191 -120 243 -44 19 -118 54 -165 79 -100 54 -109 69 -109 196 -1 103
-26 348 -47 450 -15 74 -20 103 -23 130 -2 22 -30 12 -55 -20 -13 -18 -50 -84
-82 -146 -31 -62 -60 -109 -64 -105 -8 9 -113 310 -117 335 -1 9 -25 86 -53
170 -28 84 -53 165 -55 180 -5 38 -38 148 -45 148 -3 0 -49 -28 -102 -63 -339
-217 -394 -252 -398 -258 -3 -3 -68 -46 -145 -94 -77 -48 -149 -95 -160 -104
-11 -10 -51 -37 -90 -61 -38 -24 -105 -65 -147 -91 -43 -26 -87 -56 -98 -67
-11 -10 -33 -25 -48 -33 -15 -7 -58 -34 -95 -58 -65 -43 -68 -47 -63 -76 4
-17 53 -175 111 -351 58 -175 135 -411 171 -524 37 -113 84 -257 106 -320 21
-63 39 -119 40 -125 1 -5 26 -82 55 -170 30 -88 57 -169 59 -180 2 -12 26 -85
54 -163 27 -78 52 -154 55 -170 2 -15 18 -66 36 -113 l31 -87 91 54 c51 29
115 67 142 84 28 17 104 62 170 100 66 38 125 73 130 77 20 16 62 42 155 93
52 29 97 56 100 60 3 4 32 22 65 40 33 18 116 68 185 110 69 42 155 93 192
113 37 21 81 49 98 63 17 15 42 27 56 27 25 0 198 -98 244 -138 14 -12 47 -37
74 -55 63 -43 176 -150 199 -189 l18 -31 -128 -133 c-191 -196 -372 -415 -367
-441 48 -218 47 -254 -12 -366 -75 -147 -196 -262 -348 -330 -56 -26 -325
-115 -374 -125 -41 -8 -109 -43 -147 -76 -50 -44 -77 -107 -81 -188 l-3 -66
-1545 0 c-849 0 -1543 -2 -1541 -3 6 -6 724 -61 875 -67 158 -6 202 -8 575
-30 1169 -68 2013 -90 3505 -90 1581 0 2479 25 3755 105 88 5 225 12 305 15
161 5 790 51 859 63 25 4 -1235 6 -2800 4 l-2844 -2 3 122 c2 88 9 143 23 192
19 63 28 77 97 145 42 42 108 102 147 133 l70 57 80 -6 c107 -7 130 5 258 124
140 132 198 152 212 72 6 -32 49 -137 91 -221 54 -111 103 -178 193 -268 135
-134 397 -286 549 -319 29 -6 126 -11 215 -11 165 0 208 6 369 52 69 19 80 26
111 67 41 55 136 220 159 276 56 141 70 178 93 250 14 44 27 91 29 105 2 14
15 79 29 145 98 445 98 928 1 1360 -13 60 -26 120 -29 133 -18 100 -103 311
-180 447 -71 126 -151 223 -232 283 -59 43 -63 48 -46 60 270 186 428 370 529
617 34 82 72 255 80 363 7 94 -7 255 -31 347 -8 30 -17 69 -20 87 -6 33 -57
150 -105 240 -93 174 -302 382 -470 468 -56 29 -195 78 -270 96 -62 15 -287
27 -340 18z"/>
<path d="M7639 11268 c-3 -59 -15 -76 -54 -84 -50 -9 -52 -21 -5 -34 44 -12
53 -25 59 -82 2 -22 19 -3 30 33 12 41 19 46 58 52 37 5 36 14 -6 30 -33 14
-42 24 -52 57 -12 38 -28 54 -30 28z"/>
<path d="M12134 11187 l-29 -94 -95 -29 -95 -29 95 -31 95 -31 29 -92 c16 -50
32 -91 35 -91 9 0 42 96 47 133 5 42 16 50 117 83 l88 29 -95 30 c-98 31 -102
34 -112 92 -7 40 -37 123 -44 123 -4 0 -20 -42 -36 -93z"/>
<path d="M8426 10955 c-4 -11 -1 -22 6 -27 9 -5 8 -8 -6 -8 -11 0 -17 -3 -14
-6 3 -3 -3 -33 -13 -66 -10 -34 -15 -66 -12 -71 4 -6 1 -7 -7 -2 -10 6 -12 4
-6 -10 5 -14 4 -16 -7 -7 -8 7 -17 9 -21 5 -3 -4 -12 -8 -20 -9 -7 -1 -45 -12
-84 -25 -71 -22 -71 -23 -44 -35 51 -21 75 -27 68 -16 -3 6 0 13 6 15 7 3 -1
3 -18 0 -17 -3 -34 0 -38 5 -4 7 10 9 39 7 37 -2 52 2 75 21 18 15 31 21 35
14 3 -6 10 -8 15 -5 4 3 18 1 31 -3 l23 -9 -22 -5 c-12 -4 -22 -2 -22 4 0 5
-4 6 -10 3 -6 -4 -4 -16 6 -31 9 -13 12 -25 8 -25 -46 -7 -51 -6 -46 13 4 18
5 18 18 1 17 -23 18 -3 0 31 -13 26 -13 26 -31 6 -10 -11 -26 -22 -36 -25 -30
-10 -22 -21 27 -36 46 -14 47 -16 69 -84 13 -39 21 -73 18 -77 -2 -5 3 -8 12
-8 11 0 14 -7 10 -27 -3 -16 4 -3 14 27 36 101 50 150 45 150 -6 0 -29 -63
-26 -72 1 -5 -2 -8 -8 -8 -16 0 -11 33 9 59 10 13 17 31 16 40 -1 9 0 10 2 2
4 -9 14 -11 36 -6 18 4 42 8 54 10 33 5 125 36 120 41 -2 3 -17 0 -32 -6 -30
-12 -55 -7 -55 10 0 5 8 10 18 10 14 0 15 -2 2 -10 -17 -11 0 -13 26 -3 13 5
4 11 -36 25 -40 14 -57 15 -64 7 -8 -9 -7 -10 3 -4 9 5 12 4 7 -3 -12 -20 -28
-13 -21 8 4 13 2 20 -7 20 -28 0 -41 20 -72 115 -23 68 -35 92 -40 80z m24
-56 c0 -5 -5 -7 -12 -3 -8 5 -9 1 -4 -12 5 -14 4 -16 -5 -7 -6 6 -8 16 -5 22
9 14 26 14 26 0z m7 -41 c-3 -8 -6 -5 -6 6 -1 11 2 17 5 13 3 -3 4 -12 1 -19z
m-14 -29 c23 3 28 -3 39 -45 10 -36 16 -44 30 -41 10 3 18 1 18 -4 0 -5 -4 -9
-10 -9 -5 0 -10 -6 -10 -14 0 -8 -5 -18 -12 -22 -8 -5 -9 -2 -5 10 10 25 -2
40 -19 25 -17 -14 -19 2 -3 18 7 7 8 19 4 30 -5 10 -7 22 -6 27 1 5 -4 6 -12
3 -18 -7 -45 24 -39 43 4 11 7 10 11 -3 4 -10 10 -18 14 -18z m-28 -19 c3 -5
1 -10 -4 -10 -6 0 -11 5 -11 10 0 6 2 10 4 10 3 0 8 -4 11 -10z m-111 -90 c-6
-6 -19 -7 -30 -3 -17 6 -17 8 6 13 29 8 38 4 24 -10z m298 -2 c-9 -9 -9 -15 0
-27 10 -13 10 -14 -2 -4 -7 7 -20 9 -29 4 -24 -11 -44 -8 -48 9 -4 13 -3 13 6
0 10 -13 11 -13 11 0 0 11 2 12 8 3 5 -8 13 -9 22 -3 8 6 11 10 7 10 -16 0 4
20 21 20 12 0 13 -3 4 -12z m-265 -34 c-3 -3 -12 -4 -19 -1 -8 3 -5 6 6 6 11
1 17 -2 13 -5z m188 -14 c3 -5 1 -10 -4 -10 -6 0 -11 5 -11 10 0 6 2 10 4 10
3 0 8 -4 11 -10z m-125 -14 c0 -3 -4 -8 -10 -11 -5 -3 -10 -1 -10 4 0 6 5 11
10 11 6 0 10 -2 10 -4z m9 -66 c0 -10 -3 -8 -9 5 -12 27 -12 43 0 25 5 -8 9
-22 9 -30z m29 -18 c-1 -16 -8 -29 -15 -29 -16 0 -15 -1 -3 31 13 34 21 33 18
-2z m3 -65 c-10 -9 -11 -8 -5 6 3 10 9 15 12 12 3 -3 0 -11 -7 -18z"/>
<path d="M5937 10723 c-5 -8 -34 -114 -44 -159 -4 -19 -64 -46 -134 -59 -36
-7 -59 -16 -59 -23 0 -4 41 -20 91 -37 91 -30 92 -30 109 -76 10 -25 21 -63
24 -84 4 -22 10 -43 15 -48 4 -4 21 34 38 85 28 86 33 94 64 105 156 53 162
56 140 65 -12 4 -34 10 -48 12 -14 3 -46 12 -73 21 -51 17 -52 19 -95 153 -17
53 -20 58 -28 45z"/>
<path d="M13346 10546 l-30 -94 -92 -28 c-52 -17 -87 -32 -80 -36 6 -5 48 -19
92 -33 l82 -25 26 -84 c14 -46 26 -89 26 -95 0 -6 5 -11 12 -11 6 0 9 3 6 6
-4 3 3 33 14 67 39 121 32 114 122 142 110 36 112 37 101 40 -5 2 -49 16 -97
31 l-86 27 -26 76 c-14 42 -26 84 -26 94 0 40 -17 11 -44 -77z"/>
<path d="M7262 10390 c-19 -55 -39 -100 -45 -101 -35 -2 -147 -36 -160 -49 -9
-8 66 -36 119 -46 48 -9 56 -19 86 -110 16 -49 31 -90 32 -91 2 -2 16 38 32
88 30 94 38 104 95 114 51 9 121 37 112 46 -11 9 -94 37 -135 44 -18 3 -35 8
-37 11 -3 3 -19 48 -36 100 l-31 95 -32 -101z"/>
<path d="M8593 9884 c3 -3 1 -18 -4 -33 -7 -21 -21 -31 -50 -40 -46 -14 -44
-26 5 -35 29 -6 37 -13 47 -44 l12 -37 12 34 c8 26 21 39 51 52 34 14 36 18
19 24 -55 19 -62 25 -68 54 -4 17 -12 31 -18 31 -7 0 -10 -3 -6 -6z"/>
<path d="M12035 9785 c-31 -103 -50 -117 -185 -142 -52 -9 -47 -13 65 -50 l89
-29 30 -92 c17 -51 33 -92 37 -92 7 0 18 34 26 85 3 16 12 45 22 65 15 32 24
38 110 66 52 17 90 33 85 36 -5 3 -45 15 -89 27 -43 12 -85 26 -91 32 -6 5
-17 31 -23 57 -22 88 -34 122 -42 122 -4 0 -19 -38 -34 -85z"/>
<path d="M5662 9535 c4 -4 1 -19 -6 -34 -12 -22 -12 -29 0 -45 9 -13 10 -24 3
-37 -8 -17 -6 -18 21 -13 31 7 37 -1 19 -26 -9 -13 -10 -12 -5 3 3 11 0 17
-10 17 -11 0 -14 -5 -10 -16 5 -14 4 -15 -9 -4 -17 14 -21 0 -4 -17 8 -8 5
-13 -11 -18 -24 -8 -36 0 -42 27 -3 15 -7 15 -58 -3 -83 -29 -83 -29 -77 -35
3 -3 15 -1 26 6 14 7 21 7 21 0 0 -5 -5 -10 -12 -10 -6 0 -9 -2 -6 -5 8 -8 38
6 33 16 -3 4 4 13 15 19 15 8 20 8 20 -1 0 -6 7 -9 15 -5 22 8 18 -2 -6 -15
-17 -9 -20 -8 -14 2 5 8 4 10 -4 5 -6 -4 -9 -12 -6 -17 4 -5 -2 -9 -12 -10
-10 0 -2 -6 17 -13 40 -15 54 -11 47 14 -3 13 0 16 15 12 12 -3 15 -7 9 -12
-8 -4 -5 -13 9 -25 15 -14 23 -15 34 -6 9 8 16 8 20 2 4 -6 15 -2 27 10 11 11
24 17 29 14 5 -3 11 -1 15 5 3 5 1 10 -6 10 -20 0 4 20 29 25 12 2 24 -1 27
-6 4 -5 10 -7 15 -4 5 3 11 1 15 -5 3 -5 -1 -10 -9 -10 -8 0 -18 5 -22 11 -4
7 -16 1 -33 -15 -15 -15 -30 -23 -34 -19 -4 3 -7 1 -7 -6 0 -7 6 -10 13 -8 6
3 38 13 70 23 32 9 54 20 50 25 -7 7 -109 39 -122 39 -3 0 1 -5 9 -10 8 -5 11
-10 5 -10 -24 1 -43 30 -63 97 -12 40 -28 75 -35 79 -6 4 -9 4 -5 -1z m22 -53
c2 -4 -5 -9 -17 -9 -17 -2 -19 0 -7 7 18 12 18 12 24 2z m16 -42 c0 -5 -6 -12
-12 -16 -7 -4 -10 -4 -6 1 4 4 3 14 -4 22 -8 11 -7 12 6 7 9 -3 16 -10 16 -14z
m30 -80 c0 -5 -2 -10 -4 -10 -3 0 -8 5 -11 10 -3 6 -1 10 4 10 6 0 11 -4 11
-10z m-35 -20 c-4 -11 -2 -20 4 -20 6 0 11 5 11 11 0 5 5 7 11 3 16 -10 -11
-24 -37 -19 -10 2 -23 4 -27 4 -5 1 -5 6 -1 12 5 8 9 8 14 -1 6 -9 10 -6 15 9
3 11 9 21 11 21 3 0 2 -9 -1 -20z m-110 -20 c3 -5 -1 -10 -10 -10 -9 0 -13 5
-10 10 3 6 8 10 10 10 2 0 7 -4 10 -10z"/>
<path d="M12901 9429 c-26 -77 -37 -99 -52 -100 -39 -3 -159 -40 -159 -50 0
-7 81 -34 139 -45 39 -8 42 -12 76 -117 27 -83 40 -98 48 -52 1 11 12 50 22
88 20 68 25 73 82 83 39 6 123 37 123 44 0 8 -102 40 -143 46 -17 2 -34 7 -37
11 -9 10 -50 146 -50 166 0 45 -20 15 -49 -74z"/>
<path d="M5631 9411 c-15 -50 -14 -61 4 -61 11 0 13 8 9 30 -4 17 -1 36 5 44
7 8 8 17 3 20 -5 3 -14 -12 -21 -33z"/>
<path d="M9096 9379 l-17 -56 -59 -18 c-33 -10 -60 -21 -60 -24 0 -3 27 -14
59 -23 l60 -18 16 -57 17 -58 21 56 c19 53 23 57 71 74 28 10 54 21 59 24 4 4
-19 15 -51 25 -58 17 -59 18 -79 74 l-21 57 -16 -56z"/>
<path d="M5631 9261 c10 -22 22 -57 25 -78 9 -60 16 -60 35 3 10 32 16 60 14
62 -2 3 -7 -8 -11 -22 -7 -30 -29 -30 -30 0 0 23 15 58 23 50 3 -3 0 -12 -6
-20 -8 -10 -9 -16 -1 -21 5 -3 10 1 10 9 0 9 6 16 14 16 8 0 17 7 20 16 10 25
7 29 -7 9 -10 -12 -16 -14 -21 -7 -5 9 -14 7 -31 -4 -22 -14 -24 -14 -30 5 -3
12 -10 21 -15 21 -4 0 0 -18 11 -39z"/>
<path d="M13626 8839 c-8 -29 -13 -55 -11 -57 2 -3 7 7 11 22 3 14 10 26 15
26 6 0 5 -8 -1 -19 -16 -31 -12 -43 11 -36 18 6 20 4 14 -14 -4 -12 -2 -21 4
-21 6 0 11 -3 11 -8 0 -4 -18 -7 -40 -7 -22 0 -40 3 -40 8 0 4 6 7 13 6 24 -3
37 1 37 12 0 5 -5 7 -10 4 -6 -4 -17 -1 -25 5 -12 10 -16 4 -25 -32 -11 -42
-13 -44 -78 -65 -37 -12 -83 -25 -102 -28 -19 -3 -37 -9 -40 -12 -3 -3 5 -3
18 0 12 3 22 1 22 -3 0 -5 38 -20 84 -35 l84 -28 33 -103 c19 -56 35 -101 36
-100 7 7 9 65 2 61 -4 -3 -10 -1 -13 4 -3 5 2 11 12 13 11 3 24 26 35 65 l18
60 105 34 c71 23 99 36 87 40 -10 4 -25 1 -34 -7 -19 -17 -29 -18 -29 -3 0 5
4 8 9 4 5 -3 12 -1 15 3 3 5 -30 20 -74 33 -73 22 -80 27 -86 54 -3 17 -13 46
-22 65 -8 19 -16 50 -18 68 -4 51 -11 49 -28 -9z m99 -173 c36 -8 72 -25 53
-25 -23 -1 -23 -17 -2 -29 11 -6 13 -11 5 -16 -6 -4 -11 -2 -11 4 0 6 -4 9 -9
6 -5 -4 -8 5 -6 19 1 14 -1 25 -4 26 -3 0 -14 2 -23 4 -10 2 -18 -2 -18 -8 0
-7 -7 1 -15 17 -18 35 -19 46 -2 23 6 -10 21 -19 32 -21z m-128 0 c0 -8 -6
-12 -15 -9 -11 5 -11 7 0 14 7 5 13 9 14 9 0 0 1 -6 1 -14z m23 -29 c29 4 51
0 75 -13 37 -20 45 -34 19 -34 -8 0 -12 5 -9 10 3 6 1 10 -6 10 -7 0 -9 -10
-7 -24 6 -28 -7 -55 -19 -42 -4 5 -2 11 5 13 6 3 10 9 6 14 -7 12 -81 12 -89
-1 -3 -5 -1 -10 5 -10 6 0 8 -5 4 -11 -4 -8 -9 -7 -15 2 -4 8 -3 19 3 26 14
17 -4 17 -21 1 -10 -11 -11 -10 -6 4 4 11 0 18 -15 23 -12 4 -20 9 -17 11 2 2
20 -3 40 -11 46 -19 103 -20 110 -1 3 8 3 17 0 20 -11 11 -79 6 -91 -6 -9 -9
-12 -9 -12 1 0 7 -5 9 -10 6 -6 -4 -9 -1 -8 6 2 6 -3 14 -11 17 -9 3 -11 0 -7
-7 4 -6 4 -11 -1 -10 -21 4 -32 -2 -27 -15 7 -18 -12 -30 -22 -15 -4 8 -3 9 4
5 7 -4 12 -2 12 3 0 6 -7 11 -15 11 -8 0 -15 -5 -15 -12 0 -9 -3 -9 -11 -1 -6
6 -17 9 -24 7 -7 -3 -16 -1 -20 5 -3 6 0 9 8 5 8 -3 18 -1 22 5 3 6 17 8 32 5
17 -5 24 -3 19 4 -3 6 6 14 21 20 22 7 31 5 40 -9 10 -13 22 -16 53 -12z m186
-6 c-4 -5 0 -11 6 -14 7 -2 10 -8 6 -12 -4 -4 -14 0 -22 8 -12 12 -13 17 -3
20 18 8 19 8 13 -2z m-156 -81 c8 12 10 11 10 -8 0 -13 4 -20 10 -17 6 3 10 1
10 -4 0 -15 -6 -14 -35 5 -14 9 -25 21 -25 28 0 6 5 4 10 -4 9 -13 11 -13 20
0z m-30 -36 c0 -8 -4 -12 -10 -9 -5 3 -10 10 -10 16 0 5 5 9 10 9 6 0 10 -7
10 -16z m47 -36 c-3 -8 -6 -5 -6 6 -1 11 2 17 5 13 3 -3 4 -12 1 -19z m-27
-20 c0 -5 5 -6 12 -2 7 4 8 3 4 -4 -11 -18 -33 -14 -39 7 -3 14 -1 18 9 14 8
-3 14 -9 14 -15z"/>
<path d="M5415 8583 c-19 -55 -23 -59 -67 -74 -64 -21 -66 -25 -16 -38 58 -15
62 -18 83 -78 11 -29 22 -53 25 -53 3 0 14 24 25 53 10 28 19 54 21 56 2 2 27
11 56 21 l53 17 -53 17 c-55 19 -73 40 -87 104 -3 17 -10 32 -13 32 -4 0 -16
-26 -27 -57z"/>
<path d="M12382 8501 c-15 -42 -15 -41 4 -41 9 0 12 5 8 12 -5 7 -3 8 5 3 7
-4 11 -18 8 -31 -2 -14 -1 -27 4 -29 17 -11 18 15 1 66 l-19 53 -11 -33z"/>
<path d="M12370 8442 c0 -5 7 -9 15 -9 8 0 15 4 15 9 0 4 -7 8 -15 8 -8 0 -15
-4 -15 -8z"/>
<path d="M12374 8415 c-4 -9 -1 -22 6 -28 10 -10 12 -8 6 7 -5 16 -4 17 9 6 8
-7 15 -8 15 -2 0 5 -7 15 -15 22 -12 10 -16 9 -21 -5z"/>
<path d="M12340 8409 c0 -5 5 -7 10 -4 6 3 10 8 10 11 0 2 -4 4 -10 4 -5 0
-10 -5 -10 -11z"/>
<path d="M12433 8413 c-7 -3 -9 -11 -6 -20 4 -11 2 -14 -5 -9 -7 4 -12 2 -12
-3 0 -6 5 -11 12 -11 6 0 8 -3 5 -6 -4 -4 -13 -2 -21 5 -11 9 -15 9 -19 -1 -7
-23 4 -40 18 -28 13 11 13 8 6 -29 -1 -2 -8 2 -16 9 -8 7 -16 10 -16 6 -5 -23
-4 -34 4 -59 5 -15 11 -26 13 -24 3 2 0 17 -6 33 -9 26 -9 27 4 11 14 -18 15
-16 27 21 10 35 17 42 53 51 67 18 71 26 18 42 -26 9 -52 14 -59 12z m22 -23
c-3 -5 1 -10 10 -10 10 0 13 5 9 13 -6 9 -5 9 8 0 8 -7 18 -11 21 -8 4 3 5 2
2 -2 -3 -4 -11 -8 -18 -9 -7 -1 -20 -5 -29 -9 -12 -5 -16 -2 -13 12 5 24 4 23
11 23 3 0 2 -4 -1 -10z"/>
<path d="M12280 8396 l-34 -13 34 -11 c23 -8 37 -9 44 -2 16 16 30 12 16 -5
-15 -18 -1 -19 23 -1 15 12 15 15 2 26 -8 7 -15 9 -15 4 0 -4 -5 -3 -12 4 -14
14 -13 14 -58 -2z m43 -17 c-8 -8 -16 -8 -30 0 -16 9 -14 10 12 11 21 0 26 -3
18 -11z"/>
<path d="M12360 8351 c0 -5 5 -13 10 -16 6 -3 10 -2 10 4 0 5 -4 13 -10 16 -5
3 -10 2 -10 -4z"/>
<path d="M6603 8172 c3 -12 2 -20 -2 -17 -5 2 -14 -14 -20 -36 -7 -23 -15 -48
-19 -58 -5 -14 -3 -14 11 -3 8 8 13 20 10 28 -3 8 0 14 7 14 6 0 9 4 6 9 -3 5
2 15 11 22 15 12 16 12 10 -4 -4 -10 -3 -16 2 -13 5 3 11 -2 13 -12 3 -11 0
-19 -8 -19 -7 0 -11 4 -8 9 3 4 1 8 -5 8 -19 0 -19 -15 -1 -53 10 -20 15 -38
12 -38 -40 -8 -55 -4 -63 15 -9 19 -9 19 -6 -5 3 -22 1 -25 -25 -21 -20 3 -34
-1 -44 -14 -9 -11 -12 -13 -8 -5 7 14 5 14 -90 -19 l-49 -16 53 -17 c33 -11
58 -14 68 -8 13 7 12 10 -6 20 -25 13 -29 31 -7 31 8 0 15 -5 15 -11 0 -6 7
-9 15 -6 8 4 17 2 20 -4 4 -5 3 -8 -2 -7 -4 2 -8 0 -8 -3 0 -3 -7 -14 -15 -24
-14 -17 -13 -18 3 -12 9 3 17 2 17 -4 0 -6 4 -7 10 -4 17 10 44 -12 57 -47
l13 -33 -5 31 c-4 21 0 37 15 54 11 13 23 20 27 17 3 -4 -4 -16 -17 -27 -17
-15 -20 -23 -11 -33 6 -8 7 -18 3 -22 -4 -5 2 -5 13 -1 18 6 18 5 -2 -11 -21
-17 -22 -21 -10 -56 8 -20 16 -34 20 -31 3 3 3 -3 0 -14 -2 -11 -1 -22 4 -25
6 -4 10 -1 10 6 0 7 13 49 27 94 15 46 25 87 22 92 -3 5 9 8 27 6 17 -1 37 1
42 4 6 3 17 7 25 8 8 1 39 11 69 21 l54 18 -89 27 c-49 15 -103 28 -121 29
-17 1 -29 6 -27 10 3 5 -2 15 -10 24 -9 8 -16 20 -16 26 0 12 25 5 25 -8 1
-10 24 -52 25 -44 1 15 -53 166 -62 175 -7 7 -9 3 -5 -13z m-79 -207 c4 -14
11 -23 16 -20 5 3 14 -5 20 -17 11 -22 10 -22 -4 -4 -9 11 -16 16 -16 10 -1
-11 -40 35 -40 47 0 20 18 7 24 -16z m159 5 c-3 -12 -8 -19 -11 -16 -5 6 5 36
12 36 2 0 2 -9 -1 -20z m74 -12 c1 -10 -2 -18 -8 -18 -5 0 -8 6 -6 13 1 6 -4
11 -11 9 -8 -1 -11 1 -8 6 9 16 32 9 33 -10z m62 -4 c8 -7 -13 -25 -25 -20 -8
3 -14 1 -14 -4 0 -6 -5 -10 -12 -10 -9 0 -9 3 -1 11 6 6 9 18 6 26 -5 12 -1
14 18 8 13 -4 26 -9 28 -11z m-389 -14 l21 -21 -28 7 c-16 4 -35 11 -43 16
-10 6 -8 7 9 2 16 -4 21 -3 17 5 -11 18 2 13 24 -9z m216 -14 c0 -31 -1 -33
-13 -16 -7 10 -10 25 -7 34 10 27 20 18 20 -18z m48 -12 c3 -8 2 -12 -4 -9 -6
3 -10 10 -10 16 0 14 7 11 14 -7z m44 -1 c-6 -7 -12 -13 -13 -13 -2 0 -5 6 -8
13 -3 7 3 13 14 13 13 0 15 -3 7 -13z m-78 -43 c0 -5 -2 -10 -4 -10 -3 0 -8 5
-11 10 -3 6 -1 10 4 10 6 0 11 -4 11 -10z m-10 -29 c0 -4 -10 -12 -22 -20 -20
-13 -22 -12 -11 1 7 8 11 17 8 20 -3 2 2 5 10 5 8 0 15 -3 15 -6z m-17 -48
c-3 -6 -12 -9 -20 -6 -11 4 -14 2 -9 -5 4 -7 2 -12 -3 -12 -6 0 -11 2 -11 4 0
2 -2 11 -6 19 -4 10 3 14 24 13 18 -1 28 -6 25 -13z"/>
<path d="M6787 7949 c7 -7 15 -10 18 -7 3 3 -2 9 -12 12 -14 6 -15 5 -6 -5z"/>
<path d="M6575 8039 c-4 -11 -4 -23 -1 -26 3 -4 6 1 6 11 0 9 5 14 10 11 6 -4
8 -11 5 -16 -4 -5 -1 -9 5 -9 7 0 9 7 6 16 -3 9 -6 20 -6 25 0 17 -19 9 -25
-12z"/>
<path d="M11978 7733 c0 -10 -1 -24 -1 -30 1 -7 -3 -13 -8 -13 -5 0 -12 -18
-15 -40 -7 -45 -31 -64 -95 -74 -19 -3 -46 -9 -60 -14 -21 -8 -15 -12 51 -32
41 -12 79 -25 84 -28 5 -3 6 1 2 9 -4 8 -1 6 7 -3 8 -10 18 -14 23 -10 4 4 3
-1 -4 -10 -11 -14 -10 -16 4 -14 10 2 20 8 22 14 2 7 12 16 21 22 15 8 17 5
16 -21 -2 -26 -25 -67 -25 -44 0 5 -7 0 -15 -11 -8 -10 -15 -14 -14 -9 3 20
-1 35 -10 35 -4 0 -6 -11 -3 -25 5 -27 21 -32 40 -13 15 15 15 3 1 -24 -9 -17
-13 -18 -21 -7 -8 11 -8 10 -4 -4 3 -10 6 -23 6 -28 0 -5 4 -9 8 -9 5 0 19 34
31 75 25 81 21 78 146 116 33 10 36 13 20 19 -11 4 -23 6 -27 3 -5 -2 -8 1 -8
7 0 6 -4 9 -9 5 -5 -3 -12 -1 -15 3 -3 5 -19 8 -36 7 -16 -1 -30 2 -30 7 0 4
-5 8 -11 8 -5 0 -7 -4 -4 -10 3 -5 1 -10 -6 -10 -7 0 -9 8 -6 21 7 24 -27 130
-35 109 -3 -8 -9 -12 -13 -7 -5 4 -3 13 3 19 15 15 16 28 2 28 -5 0 -11 -8
-12 -17z m28 -67 c-3 -15 1 -27 10 -30 7 -3 11 -12 9 -21 -3 -8 -7 -22 -10
-31 -3 -9 -8 -15 -11 -12 -2 3 0 17 5 32 9 21 8 26 -5 26 -9 0 -12 -5 -8 -12
4 -7 4 -10 -1 -6 -4 4 -13 4 -19 -2 -8 -6 -12 -1 -13 18 -1 15 1 21 4 15 7
-18 19 -16 21 2 1 8 3 22 4 30 1 8 5 15 10 15 5 0 6 -11 4 -24z m-161 -106
c-3 -5 -1 -10 4 -10 6 0 11 6 11 13 0 8 4 7 10 -3 8 -12 13 -13 30 -2 23 14
50 16 50 3 0 -16 -22 -24 -30 -11 -5 8 -9 7 -13 -5 -4 -9 -3 -13 3 -10 6 3 10
1 10 -5 0 -13 -43 -3 -48 11 -2 5 -8 7 -13 3 -12 -7 -31 5 -24 17 4 5 8 9 11
9 3 0 2 -4 -1 -10z m195 6 c0 -3 -4 -8 -10 -11 -5 -3 -10 -1 -10 4 0 6 5 11
10 11 6 0 10 -2 10 -4z m67 -4 c8 -5 9 -13 3 -22 -8 -12 -10 -11 -10 5 0 15
-3 16 -12 7 -15 -15 -38 -16 -38 -1 0 5 4 8 9 4 5 -3 12 -1 16 5 7 12 16 12
32 2z m43 -12 c0 -5 -4 -10 -10 -10 -5 0 -10 5 -10 10 0 6 5 10 10 10 6 0 10
-4 10 -10z m-147 -14 c3 -8 -2 -16 -14 -19 -16 -4 -17 -2 -8 14 12 23 15 23
22 5z m77 -10 c0 -2 -7 -7 -16 -10 -8 -3 -12 -2 -9 4 6 10 25 14 25 6z"/>
<path d="M5518 7538 c-9 -29 -19 -67 -23 -85 -8 -42 -16 -47 -120 -81 -79 -25
-87 -30 -69 -40 12 -6 32 -13 45 -15 49 -9 114 -29 126 -39 7 -5 15 -26 19
-47 9 -56 35 -131 44 -131 5 0 19 33 30 73 12 39 26 82 32 94 9 19 48 35 113
47 44 9 75 19 75 25 0 3 -44 20 -98 37 -59 19 -97 37 -97 45 -1 22 -49 169
-55 169 -4 0 -14 -24 -22 -52z"/>
<path d="M12947 7510 l-17 -59 -55 -16 c-30 -9 -53 -20 -50 -25 3 -4 28 -13
55 -20 l51 -12 16 -59 c9 -33 18 -57 21 -54 2 2 12 28 22 57 16 51 18 52 75
71 l59 20 -59 21 c-56 20 -59 23 -77 75 -10 30 -19 55 -21 57 -1 1 -10 -24
-20 -56z"/>
<path d="M12004 7492 c4 -7 1 -15 -8 -18 -20 -8 -21 -21 -1 -21 19 0 29 28 14
41 -9 8 -10 8 -5 -2z"/>
<path d="M7995 7270 c-10 -33 -23 -60 -29 -61 -24 -1 -55 -9 -82 -20 -29 -11
-29 -11 33 -31 l62 -20 17 -59 c10 -33 21 -59 25 -59 5 0 11 17 16 38 4 20 8
40 9 45 1 4 2 13 3 21 0 7 27 21 61 30 33 9 60 20 60 24 0 5 -26 14 -57 22
l-57 15 -14 58 c-8 31 -17 57 -21 57 -5 0 -16 -27 -26 -60z"/>
<path d="M6969 6913 c-6 -16 -17 -49 -25 -75 -15 -48 -14 -47 -89 -62 -41 -9
-71 -24 -55 -29 62 -20 117 -41 126 -48 6 -5 19 -36 29 -69 10 -33 23 -60 28
-60 6 0 8 3 5 6 -4 3 4 33 16 67 20 56 25 62 61 73 105 31 117 47 44 58 -74
11 -86 21 -104 83 -10 32 -18 64 -18 71 -1 19 -7 14 -18 -15z"/>
<path d="M13627 6769 c-9 -24 -18 -55 -20 -69 -3 -21 -15 -29 -75 -50 -39 -14
-73 -28 -76 -31 -4 -3 28 -17 69 -30 41 -13 75 -27 75 -31 0 -25 34 -113 45
-116 5 -2 19 25 31 60 l21 63 72 24 c39 13 68 28 64 31 -4 4 -38 17 -74 29
-61 20 -68 25 -73 54 -4 18 -14 50 -24 71 l-18 40 -17 -45z"/>
<path d="M12439 6717 c-1 -9 -2 -20 -3 -24 -1 -5 -5 -24 -9 -44 -7 -34 -11
-37 -67 -54 -33 -10 -60 -22 -60 -27 0 -4 3 -7 8 -6 4 1 29 -4 55 -11 53 -15
72 -45 76 -119 2 -27 21 0 37 53 16 51 19 54 63 66 25 7 49 12 54 11 4 -1 7 2
7 6 0 5 -24 16 -54 25 -53 17 -55 19 -72 70 -18 58 -33 81 -35 54z"/>
<path d="M3621 5456 c2 -2 96 -11 209 -20 113 -9 237 -18 276 -22 39 -3 95 -5
125 -5 30 0 250 -13 489 -29 749 -51 1210 -75 1580 -85 91 -2 410 -13 710 -24
947 -35 1505 -45 2590 -45 1085 0 1643 10 2590 45 300 11 622 22 715 24 343 9
969 42 1579 85 159 11 343 22 410 25 193 8 678 44 685 51 2 2 -2688 4 -5979 4
-3291 0 -5981 -2 -5979 -4z"/>
<path d="M2647 5048 c25 -10 860 -71 884 -65 10 3 21 2 24 -3 2 -4 15 -5 28
-3 13 3 194 -7 403 -21 608 -42 1223 -76 1444 -81 113 -3 306 -10 430 -15
1375 -61 2022 -74 3740 -74 1725 0 2261 10 3745 74 127 5 318 12 425 14 221 6
690 32 1365 77 253 17 470 28 483 26 12 -2 25 -1 27 3 3 5 14 6 24 3 24 -6
859 55 884 65 9 4 -3119 7 -6953 7 -3834 0 -6962 -3 -6953 -7z"/>
</g>
</svg>
